<?xml version="1.0" encoding="UTF-8"?>
<svg id="dg_iocn" xmlns="http://www.w3.org/2000/svg"
     viewBox="0 0 66.4 42.6">
    <path id="dLetter" d="m25.29,3.09c3.34,1.7,5.92,4.14,7.74,7.32,1.82,3.18,2.73,6.89,2.73,11.13s-.91,7.92-2.73,11.04c-1.82,3.12-4.4,5.51-7.74,7.17-3.34,1.66-7.23,2.49-11.67,2.49H0V.54h13.62c4.44,0,8.33.85,11.67,2.55Zm-.45,29.61c2.6-2.64,3.9-6.36,3.9-11.16s-1.3-8.62-3.9-11.34c-2.6-2.72-6.34-4.08-11.22-4.08h-6.78v30.54h6.78c4.88,0,8.62-1.32,11.22-3.96Z"/>
    <path id="gLetter" d="m56.92,12.54c-1.08-2.08-2.58-3.65-4.5-4.71-1.92-1.06-4.14-1.59-6.66-1.59-2.76,0-5.22.62-7.38,1.86-2.16,1.24-3.85,3-5.07,5.28-1.22,2.28-1.83,4.92-1.83,7.92s.61,5.65,1.83,7.95c1.22,2.3,2.91,4.07,5.07,5.31,2.16,1.24,4.62,1.86,7.38,1.86,3.72,0,6.74-1.04,9.06-3.12,2.32-2.08,3.74-4.9,4.26-8.46h-15.66v-5.46h22.98v5.34c-.44,3.24-1.59,6.22-3.45,8.94-1.86,2.72-4.28,4.89-7.26,6.51-2.98,1.62-6.29,2.43-9.93,2.43-3.92,0-7.5-.91-10.74-2.73-3.24-1.82-5.81-4.35-7.71-7.59-1.9-3.24-2.85-6.9-2.85-10.98s.95-7.74,2.85-10.98c1.9-3.24,4.48-5.77,7.74-7.59,3.26-1.82,6.83-2.73,10.71-2.73,4.44,0,8.39,1.09,11.85,3.27,3.46,2.18,5.97,5.27,7.53,9.27h-8.22Z"/>
</svg>